<svg xmlns="http://www.w3.org/2000/svg" viewBox="0 0 48 48" fill="none">
  <defs>
    <linearGradient id="g" x1="8" y1="8" x2="40" y2="40" gradientUnits="userSpaceOnUse">
      <stop offset="0%" stop-color="#f0f4f8"/>
      <stop offset="100%" stop-color="#cbd5e1"/>
    </linearGradient>
    <filter id="s"><feDropShadow dx="0" dy="2" stdDeviation="2" flood-color="#1e3a5f" flood-opacity="0.12"/></filter>
    <filter id="gl"><feGaussianBlur stdDeviation="1.5" result="g"/><feMerge><feMergeNode in="g"/><feMergeNode in="SourceGraphic"/></feMerge></filter>
  </defs>
  <circle cx="24" cy="24" r="18" fill="url(#g)" filter="url(#s)"/>
  <!-- Face outline -->
  <circle cx="24" cy="23" r="9" fill="none" stroke="#3b82f6" stroke-width="1.5" filter="url(#gl)"/>
  <!-- Eyes -->
  <circle cx="21" cy="21" r="1.2" fill="#3b82f6" opacity="0.8"/>
  <circle cx="27" cy="21" r="1.2" fill="#3b82f6" opacity="0.8"/>
  <!-- Nose (pet) -->
  <ellipse cx="24" cy="24.5" rx="2" ry="1.3" fill="none" stroke="#3b82f6" stroke-width="1" opacity="0.7"/>
  <!-- Ears -->
  <path d="M16 18 L19 14 L20 19" fill="none" stroke="#3b82f6" stroke-width="1.2" stroke-linecap="round" stroke-linejoin="round" opacity="0.8"/>
  <path d="M32 18 L29 14 L28 19" fill="none" stroke="#3b82f6" stroke-width="1.2" stroke-linecap="round" stroke-linejoin="round" opacity="0.8"/>
  <!-- Scan corners -->
  <path d="M15 17 L15 14 L18 14" fill="none" stroke="#60a5fa" stroke-width="1" opacity="0.5" stroke-linecap="round"/>
  <path d="M33 14 L33 17" fill="none" stroke="#60a5fa" stroke-width="1" opacity="0.5" stroke-linecap="round"/>
  <path d="M30 14 L33 14" fill="none" stroke="#60a5fa" stroke-width="1" opacity="0.5" stroke-linecap="round"/>
  <path d="M33 31 L33 34 L30 34" fill="none" stroke="#60a5fa" stroke-width="1" opacity="0.5" stroke-linecap="round"/>
  <path d="M15 34 L18 34" fill="none" stroke="#60a5fa" stroke-width="1" opacity="0.5" stroke-linecap="round"/>
  <path d="M15 31 L15 34" fill="none" stroke="#60a5fa" stroke-width="1" opacity="0.5" stroke-linecap="round"/>
</svg>
